<svg xmlns="http://www.w3.org/2000/svg" xmlns:xlink="http://www.w3.org/1999/xlink" width="500" zoomAndPan="magnify" viewBox="0 0 375 374.999991" height="500" preserveAspectRatio="xMidYMid meet" version="1.0"><defs><g/></defs><g fill="#ffffff" fill-opacity="1"><g transform="translate(117.620867, 164.244328)"><g><path d="M -0.292969 -5.824219 L -0.292969 -11.648438 L 5.824219 -11.648438 L 5.824219 -5.53125 L -6.117188 -5.53125 L -6.117188 -52.707031 L 17.761719 -52.707031 L 17.761719 -23.296875 L 11.648438 -23.296875 L 11.648438 -29.410156 L 17.472656 -29.410156 L 17.472656 -23.296875 L 11.355469 -23.296875 L 11.355469 -52.707031 L 29.410156 -52.707031 L 29.410156 -23.296875 L 23.296875 -23.296875 L 23.296875 -29.410156 L 29.117188 -29.410156 L 29.117188 -23.296875 L 23.003906 -23.296875 L 23.003906 -52.707031 L 46.882812 -52.707031 L 46.882812 -5.53125 L 34.941406 -5.53125 L 34.941406 -11.648438 L 41.058594 -11.648438 L 41.058594 0.292969 L 23.003906 0.292969 L 23.003906 -11.648438 L 29.117188 -11.648438 L 29.117188 -5.53125 L 17.179688 -5.53125 L 17.179688 -17.472656 L 23.296875 -17.472656 L 23.296875 -11.355469 L 17.472656 -11.355469 L 17.472656 -17.472656 L 23.585938 -17.472656 L 23.585938 -5.53125 L 11.648438 -5.53125 L 11.648438 -11.648438 L 17.761719 -11.648438 L 17.761719 0.292969 L -0.292969 0.292969 Z M 11.9375 -5.824219 L 5.824219 -5.824219 L 5.824219 -11.9375 L 11.648438 -11.9375 L 11.648438 -5.824219 L 5.53125 -5.824219 L 5.53125 -17.761719 L 17.472656 -17.761719 L 17.472656 -11.648438 L 11.355469 -11.648438 L 11.355469 -23.585938 L 29.410156 -23.585938 L 29.410156 -11.648438 L 23.296875 -11.648438 L 23.296875 -17.761719 L 35.234375 -17.761719 L 35.234375 -5.824219 L 29.117188 -5.824219 L 29.117188 -11.9375 L 34.941406 -11.9375 L 34.941406 -5.824219 L 28.828125 -5.824219 L 28.828125 -17.761719 L 40.765625 -17.761719 L 40.765625 -11.648438 L 34.652344 -11.648438 L 34.652344 -46.589844 L 40.765625 -46.589844 L 40.765625 -40.472656 L 29.117188 -40.472656 L 29.117188 -46.589844 L 35.234375 -46.589844 L 35.234375 -17.179688 L 17.179688 -17.179688 L 17.179688 -46.589844 L 23.296875 -46.589844 L 23.296875 -40.472656 L 17.472656 -40.472656 L 17.472656 -46.589844 L 23.585938 -46.589844 L 23.585938 -17.179688 L 5.53125 -17.179688 L 5.53125 -46.589844 L 11.648438 -46.589844 L 11.648438 -40.472656 L 0 -40.472656 L 0 -46.589844 L 6.117188 -46.589844 L 6.117188 -11.648438 L 0 -11.648438 L 0 -17.761719 L 11.9375 -17.761719 Z M 11.9375 -5.824219 "/></g></g></g><g fill="#ffffff" fill-opacity="1"><g transform="translate(164.202964, 164.244328)"><g><path d="M -6.117188 -5.824219 L -6.117188 -52.707031 L 17.761719 -52.707031 L 17.761719 -29.117188 L 11.648438 -29.117188 L 11.648438 -35.234375 L 29.117188 -35.234375 L 29.117188 -29.117188 L 23.003906 -29.117188 L 23.003906 -52.707031 L 46.882812 -52.707031 L 46.882812 0.292969 L 23.003906 0.292969 L 23.003906 -23.296875 L 29.117188 -23.296875 L 29.117188 -17.179688 L 11.648438 -17.179688 L 11.648438 -23.296875 L 17.761719 -23.296875 L 17.761719 0.292969 L -6.117188 0.292969 Z M 6.117188 -5.824219 L 0 -5.824219 L 0 -11.9375 L 11.648438 -11.9375 L 11.648438 -5.824219 L 5.53125 -5.824219 L 5.53125 -29.410156 L 35.234375 -29.410156 L 35.234375 -5.824219 L 29.117188 -5.824219 L 29.117188 -11.9375 L 40.765625 -11.9375 L 40.765625 -5.824219 L 34.652344 -5.824219 L 34.652344 -46.589844 L 40.765625 -46.589844 L 40.765625 -40.472656 L 29.117188 -40.472656 L 29.117188 -46.589844 L 35.234375 -46.589844 L 35.234375 -23.003906 L 5.53125 -23.003906 L 5.53125 -46.589844 L 11.648438 -46.589844 L 11.648438 -40.472656 L 0 -40.472656 L 0 -46.589844 L 6.117188 -46.589844 Z M 6.117188 -5.824219 "/></g></g></g><g fill="#ffffff" fill-opacity="1"><g transform="translate(210.785062, 164.244328)"><g><path d="M -0.292969 -5.824219 L -0.292969 -11.648438 L 5.824219 -11.648438 L 5.824219 -5.53125 L -6.117188 -5.53125 L -6.117188 -46.882812 L 5.824219 -46.882812 L 5.824219 -40.765625 L -0.292969 -40.765625 L -0.292969 -52.707031 L 41.058594 -52.707031 L 41.058594 -40.765625 L 34.941406 -40.765625 L 34.941406 -46.882812 L 46.882812 -46.882812 L 46.882812 -5.53125 L 34.941406 -5.53125 L 34.941406 -11.648438 L 41.058594 -11.648438 L 41.058594 0.292969 L -0.292969 0.292969 Z M 11.9375 -5.824219 L 5.824219 -5.824219 L 5.824219 -11.9375 L 34.941406 -11.9375 L 34.941406 -5.824219 L 28.828125 -5.824219 L 28.828125 -17.761719 L 40.765625 -17.761719 L 40.765625 -11.648438 L 34.652344 -11.648438 L 34.652344 -40.765625 L 40.765625 -40.765625 L 40.765625 -34.652344 L 28.828125 -34.652344 L 28.828125 -46.589844 L 34.941406 -46.589844 L 34.941406 -40.472656 L 5.824219 -40.472656 L 5.824219 -46.589844 L 11.9375 -46.589844 L 11.9375 -34.652344 L 0 -34.652344 L 0 -40.765625 L 6.117188 -40.765625 L 6.117188 -11.648438 L 0 -11.648438 L 0 -17.761719 L 11.9375 -17.761719 Z M 11.648438 -17.761719 L 29.117188 -17.761719 L 29.117188 -11.648438 L 23.003906 -11.648438 L 23.003906 -40.765625 L 29.117188 -40.765625 L 29.117188 -34.652344 L 11.648438 -34.652344 L 11.648438 -40.765625 L 17.761719 -40.765625 L 17.761719 -11.648438 L 11.648438 -11.648438 Z M 5.53125 -5.53125 L 5.53125 -46.882812 L 35.234375 -46.882812 L 35.234375 -5.53125 Z M 5.53125 -5.53125 "/></g></g></g><g fill="#ffffff" fill-opacity="1"><g transform="translate(257.378674, 164.244328)"><g/></g></g><g fill="#ffffff" fill-opacity="1"><g transform="translate(71.038839, 210.744325)"><g><path d="M -6.117188 -5.824219 L -6.117188 -52.707031 L 41.058594 -52.707031 L 41.058594 -40.765625 L 34.941406 -40.765625 L 34.941406 -46.882812 L 46.882812 -46.882812 L 46.882812 -23.003906 L 34.941406 -23.003906 L 34.941406 -29.117188 L 41.058594 -29.117188 L 41.058594 -23.296875 L 34.941406 -23.296875 L 34.941406 -29.410156 L 46.882812 -29.410156 L 46.882812 -5.53125 L 34.941406 -5.53125 L 34.941406 -11.648438 L 41.058594 -11.648438 L 41.058594 0.292969 L -6.117188 0.292969 Z M 6.117188 -5.824219 L 0 -5.824219 L 0 -11.9375 L 34.941406 -11.9375 L 34.941406 -5.824219 L 28.828125 -5.824219 L 28.828125 -17.761719 L 40.765625 -17.761719 L 40.765625 -11.648438 L 34.652344 -11.648438 L 34.652344 -23.296875 L 40.765625 -23.296875 L 40.765625 -17.179688 L 28.828125 -17.179688 L 28.828125 -35.234375 L 40.765625 -35.234375 L 40.765625 -29.117188 L 34.652344 -29.117188 L 34.652344 -40.765625 L 40.765625 -40.765625 L 40.765625 -34.652344 L 28.828125 -34.652344 L 28.828125 -46.589844 L 34.941406 -46.589844 L 34.941406 -40.472656 L 0 -40.472656 L 0 -46.589844 L 6.117188 -46.589844 Z M 11.648438 -35.234375 L 29.117188 -35.234375 L 29.117188 -29.117188 L 23.003906 -29.117188 L 23.003906 -40.765625 L 29.117188 -40.765625 L 29.117188 -34.652344 L 11.648438 -34.652344 L 11.648438 -40.765625 L 17.761719 -40.765625 L 17.761719 -29.117188 L 11.648438 -29.117188 Z M 5.53125 -23.003906 L 5.53125 -46.882812 L 35.234375 -46.882812 L 35.234375 -23.003906 Z M 11.648438 -17.761719 L 29.117188 -17.761719 L 29.117188 -11.648438 L 23.003906 -11.648438 L 23.003906 -23.296875 L 29.117188 -23.296875 L 29.117188 -17.179688 L 11.648438 -17.179688 L 11.648438 -23.296875 L 17.761719 -23.296875 L 17.761719 -11.648438 L 11.648438 -11.648438 Z M 5.53125 -5.53125 L 5.53125 -29.410156 L 35.234375 -29.410156 L 35.234375 -5.53125 Z M 5.53125 -5.53125 "/></g></g></g><g fill="#ffffff" fill-opacity="1"><g transform="translate(117.620936, 210.744325)"><g><path d="M -0.292969 -5.824219 L -0.292969 -11.648438 L 5.824219 -11.648438 L 5.824219 -5.53125 L -6.117188 -5.53125 L -6.117188 -52.707031 L 17.761719 -52.707031 L 17.761719 -11.648438 L 11.648438 -11.648438 L 11.648438 -17.761719 L 29.117188 -17.761719 L 29.117188 -11.648438 L 23.003906 -11.648438 L 23.003906 -52.707031 L 46.882812 -52.707031 L 46.882812 -5.53125 L 34.941406 -5.53125 L 34.941406 -11.648438 L 41.058594 -11.648438 L 41.058594 0.292969 L -0.292969 0.292969 Z M 11.9375 -5.824219 L 5.824219 -5.824219 L 5.824219 -11.9375 L 34.941406 -11.9375 L 34.941406 -5.824219 L 28.828125 -5.824219 L 28.828125 -17.761719 L 40.765625 -17.761719 L 40.765625 -11.648438 L 34.652344 -11.648438 L 34.652344 -46.589844 L 40.765625 -46.589844 L 40.765625 -40.472656 L 29.117188 -40.472656 L 29.117188 -46.589844 L 35.234375 -46.589844 L 35.234375 -5.53125 L 5.53125 -5.53125 L 5.53125 -46.589844 L 11.648438 -46.589844 L 11.648438 -40.472656 L 0 -40.472656 L 0 -46.589844 L 6.117188 -46.589844 L 6.117188 -11.648438 L 0 -11.648438 L 0 -17.761719 L 11.9375 -17.761719 Z M 11.9375 -5.824219 "/></g></g></g><g fill="#ffffff" fill-opacity="1"><g transform="translate(164.203033, 210.744325)"><g><path d="M -0.292969 -5.824219 L -0.292969 -17.761719 L 17.472656 -17.761719 L 17.472656 -11.648438 L 11.355469 -11.648438 L 11.355469 -40.765625 L 17.472656 -40.765625 L 17.472656 -34.652344 L -0.292969 -34.652344 L -0.292969 -52.707031 L 46.882812 -52.707031 L 46.882812 -34.652344 L 29.117188 -34.652344 L 29.117188 -40.765625 L 35.234375 -40.765625 L 35.234375 -11.648438 L 29.117188 -11.648438 L 29.117188 -17.761719 L 46.882812 -17.761719 L 46.882812 0.292969 L -0.292969 0.292969 Z M 11.9375 -5.824219 L 5.824219 -5.824219 L 5.824219 -11.9375 L 40.765625 -11.9375 L 40.765625 -5.824219 L 34.652344 -5.824219 L 34.652344 -11.648438 L 40.765625 -11.648438 L 40.765625 -5.53125 L 23.003906 -5.53125 L 23.003906 -46.882812 L 40.765625 -46.882812 L 40.765625 -40.765625 L 34.652344 -40.765625 L 34.652344 -46.589844 L 40.765625 -46.589844 L 40.765625 -40.472656 L 5.824219 -40.472656 L 5.824219 -46.589844 L 11.9375 -46.589844 L 11.9375 -40.765625 L 5.824219 -40.765625 L 5.824219 -46.882812 L 23.585938 -46.882812 L 23.585938 -5.53125 L 5.824219 -5.53125 L 5.824219 -11.648438 L 11.9375 -11.648438 Z M 11.9375 -5.824219 "/></g></g></g><g fill="#ffffff" fill-opacity="1"><g transform="translate(210.785131, 210.744325)"><g><path d="M -0.292969 -5.824219 L -0.292969 -52.707031 L 23.585938 -52.707031 L 23.585938 -11.648438 L 17.472656 -11.648438 L 17.472656 -17.761719 L 46.882812 -17.761719 L 46.882812 0.292969 L -0.292969 0.292969 Z M 11.9375 -5.824219 L 5.824219 -5.824219 L 5.824219 -11.9375 L 40.765625 -11.9375 L 40.765625 -5.824219 L 34.652344 -5.824219 L 34.652344 -11.648438 L 40.765625 -11.648438 L 40.765625 -5.53125 L 11.355469 -5.53125 L 11.355469 -46.589844 L 17.472656 -46.589844 L 17.472656 -40.472656 L 5.824219 -40.472656 L 5.824219 -46.589844 L 11.9375 -46.589844 Z M 11.9375 -5.824219 "/></g></g></g><g fill="#ffffff" fill-opacity="1"><g transform="translate(257.367228, 210.744325)"><g><path d="M -6.117188 -5.824219 L -6.117188 -52.707031 L 35.234375 -52.707031 L 35.234375 -40.765625 L 29.117188 -40.765625 L 29.117188 -46.882812 L 41.058594 -46.882812 L 41.058594 -34.941406 L 34.941406 -34.941406 L 34.941406 -41.058594 L 46.882812 -41.058594 L 46.882812 -11.355469 L 34.941406 -11.355469 L 34.941406 -17.472656 L 41.058594 -17.472656 L 41.058594 -5.53125 L 29.117188 -5.53125 L 29.117188 -11.648438 L 35.234375 -11.648438 L 35.234375 0.292969 L -6.117188 0.292969 Z M 6.117188 -5.824219 L 0 -5.824219 L 0 -11.9375 L 29.117188 -11.9375 L 29.117188 -5.824219 L 23.003906 -5.824219 L 23.003906 -17.761719 L 34.941406 -17.761719 L 34.941406 -11.648438 L 28.828125 -11.648438 L 28.828125 -23.585938 L 40.765625 -23.585938 L 40.765625 -17.472656 L 34.652344 -17.472656 L 34.652344 -34.941406 L 40.765625 -34.941406 L 40.765625 -28.828125 L 28.828125 -28.828125 L 28.828125 -40.765625 L 34.941406 -40.765625 L 34.941406 -34.652344 L 23.003906 -34.652344 L 23.003906 -46.589844 L 29.117188 -46.589844 L 29.117188 -40.472656 L 0 -40.472656 L 0 -46.589844 L 6.117188 -46.589844 Z M 11.648438 -17.761719 L 23.296875 -17.761719 L 23.296875 -11.648438 L 17.179688 -11.648438 L 17.179688 -23.585938 L 29.117188 -23.585938 L 29.117188 -17.472656 L 23.003906 -17.472656 L 23.003906 -34.941406 L 29.117188 -34.941406 L 29.117188 -28.828125 L 17.179688 -28.828125 L 17.179688 -40.765625 L 23.296875 -40.765625 L 23.296875 -34.652344 L 11.648438 -34.652344 L 11.648438 -40.765625 L 17.761719 -40.765625 L 17.761719 -11.648438 L 11.648438 -11.648438 Z M 5.53125 -5.53125 L 5.53125 -46.882812 L 29.410156 -46.882812 L 29.410156 -34.941406 L 23.296875 -34.941406 L 23.296875 -41.058594 L 35.234375 -41.058594 L 35.234375 -11.355469 L 23.296875 -11.355469 L 23.296875 -17.472656 L 29.410156 -17.472656 L 29.410156 -5.53125 Z M 5.53125 -5.53125 "/></g></g></g><g fill="#ffffff" fill-opacity="1"><g transform="translate(303.960699, 210.744325)"><g/></g></g><g fill="#ffffff" fill-opacity="1"><g transform="translate(94.323994, 257.244322)"><g><path d="M 11.355469 -5.824219 L 11.355469 -40.765625 L 17.472656 -40.765625 L 17.472656 -34.652344 L -0.292969 -34.652344 L -0.292969 -52.707031 L 46.882812 -52.707031 L 46.882812 -34.652344 L 29.117188 -34.652344 L 29.117188 -40.765625 L 35.234375 -40.765625 L 35.234375 0.292969 L 11.355469 0.292969 Z M 23.585938 -5.824219 L 17.472656 -5.824219 L 17.472656 -11.9375 L 29.117188 -11.9375 L 29.117188 -5.824219 L 23.003906 -5.824219 L 23.003906 -46.882812 L 40.765625 -46.882812 L 40.765625 -40.765625 L 34.652344 -40.765625 L 34.652344 -46.589844 L 40.765625 -46.589844 L 40.765625 -40.472656 L 5.824219 -40.472656 L 5.824219 -46.589844 L 11.9375 -46.589844 L 11.9375 -40.765625 L 5.824219 -40.765625 L 5.824219 -46.882812 L 23.585938 -46.882812 Z M 23.585938 -5.824219 "/></g></g></g><g fill="#ffffff" fill-opacity="1"><g transform="translate(140.906091, 257.244322)"><g><path d="M -6.117188 -5.824219 L -6.117188 -52.707031 L 17.761719 -52.707031 L 17.761719 -29.117188 L 11.648438 -29.117188 L 11.648438 -35.234375 L 29.117188 -35.234375 L 29.117188 -29.117188 L 23.003906 -29.117188 L 23.003906 -52.707031 L 46.882812 -52.707031 L 46.882812 0.292969 L 23.003906 0.292969 L 23.003906 -23.296875 L 29.117188 -23.296875 L 29.117188 -17.179688 L 11.648438 -17.179688 L 11.648438 -23.296875 L 17.761719 -23.296875 L 17.761719 0.292969 L -6.117188 0.292969 Z M 6.117188 -5.824219 L 0 -5.824219 L 0 -11.9375 L 11.648438 -11.9375 L 11.648438 -5.824219 L 5.53125 -5.824219 L 5.53125 -29.410156 L 35.234375 -29.410156 L 35.234375 -5.824219 L 29.117188 -5.824219 L 29.117188 -11.9375 L 40.765625 -11.9375 L 40.765625 -5.824219 L 34.652344 -5.824219 L 34.652344 -46.589844 L 40.765625 -46.589844 L 40.765625 -40.472656 L 29.117188 -40.472656 L 29.117188 -46.589844 L 35.234375 -46.589844 L 35.234375 -23.003906 L 5.53125 -23.003906 L 5.53125 -46.589844 L 11.648438 -46.589844 L 11.648438 -40.472656 L 0 -40.472656 L 0 -46.589844 L 6.117188 -46.589844 Z M 6.117188 -5.824219 "/></g></g></g><g fill="#ffffff" fill-opacity="1"><g transform="translate(187.488188, 257.244322)"><g><path d="M -0.292969 -5.824219 L -0.292969 -17.761719 L 17.472656 -17.761719 L 17.472656 -11.648438 L 11.355469 -11.648438 L 11.355469 -40.765625 L 17.472656 -40.765625 L 17.472656 -34.652344 L -0.292969 -34.652344 L -0.292969 -52.707031 L 46.882812 -52.707031 L 46.882812 -34.652344 L 29.117188 -34.652344 L 29.117188 -40.765625 L 35.234375 -40.765625 L 35.234375 -11.648438 L 29.117188 -11.648438 L 29.117188 -17.761719 L 46.882812 -17.761719 L 46.882812 0.292969 L -0.292969 0.292969 Z M 11.9375 -5.824219 L 5.824219 -5.824219 L 5.824219 -11.9375 L 40.765625 -11.9375 L 40.765625 -5.824219 L 34.652344 -5.824219 L 34.652344 -11.648438 L 40.765625 -11.648438 L 40.765625 -5.53125 L 23.003906 -5.53125 L 23.003906 -46.882812 L 40.765625 -46.882812 L 40.765625 -40.765625 L 34.652344 -40.765625 L 34.652344 -46.589844 L 40.765625 -46.589844 L 40.765625 -40.472656 L 5.824219 -40.472656 L 5.824219 -46.589844 L 11.9375 -46.589844 L 11.9375 -40.765625 L 5.824219 -40.765625 L 5.824219 -46.882812 L 23.585938 -46.882812 L 23.585938 -5.53125 L 5.824219 -5.53125 L 5.824219 -11.648438 L 11.9375 -11.648438 Z M 11.9375 -5.824219 "/></g></g></g><g fill="#ffffff" fill-opacity="1"><g transform="translate(234.070285, 257.244322)"><g><path d="M -0.292969 -5.824219 L -0.292969 -11.648438 L 5.824219 -11.648438 L 5.824219 -5.53125 L -6.117188 -5.53125 L -6.117188 -23.585938 L 17.761719 -23.585938 L 17.761719 -11.648438 L 11.648438 -11.648438 L 11.648438 -17.761719 L 29.117188 -17.761719 L 29.117188 -11.648438 L 23.003906 -11.648438 L 23.003906 -23.296875 L 29.117188 -23.296875 L 29.117188 -17.179688 L -0.292969 -17.179688 L -0.292969 -29.117188 L 5.824219 -29.117188 L 5.824219 -23.003906 L -6.117188 -23.003906 L -6.117188 -46.882812 L 5.824219 -46.882812 L 5.824219 -40.765625 L -0.292969 -40.765625 L -0.292969 -52.707031 L 41.058594 -52.707031 L 41.058594 -40.765625 L 34.941406 -40.765625 L 34.941406 -46.882812 L 46.882812 -46.882812 L 46.882812 -28.828125 L 23.003906 -28.828125 L 23.003906 -40.765625 L 29.117188 -40.765625 L 29.117188 -34.652344 L 11.648438 -34.652344 L 11.648438 -40.765625 L 17.761719 -40.765625 L 17.761719 -29.117188 L 11.648438 -29.117188 L 11.648438 -35.234375 L 41.058594 -35.234375 L 41.058594 -23.296875 L 34.941406 -23.296875 L 34.941406 -29.410156 L 46.882812 -29.410156 L 46.882812 -5.53125 L 34.941406 -5.53125 L 34.941406 -11.648438 L 41.058594 -11.648438 L 41.058594 0.292969 L -0.292969 0.292969 Z M 11.9375 -5.824219 L 5.824219 -5.824219 L 5.824219 -11.9375 L 34.941406 -11.9375 L 34.941406 -5.824219 L 28.828125 -5.824219 L 28.828125 -17.761719 L 40.765625 -17.761719 L 40.765625 -11.648438 L 34.652344 -11.648438 L 34.652344 -23.296875 L 40.765625 -23.296875 L 40.765625 -17.179688 L 28.828125 -17.179688 L 28.828125 -29.117188 L 34.941406 -29.117188 L 34.941406 -23.003906 L 5.53125 -23.003906 L 5.53125 -46.882812 L 35.234375 -46.882812 L 35.234375 -34.941406 L 29.117188 -34.941406 L 29.117188 -41.058594 L 40.765625 -41.058594 L 40.765625 -34.941406 L 34.652344 -34.941406 L 34.652344 -40.765625 L 40.765625 -40.765625 L 40.765625 -34.652344 L 28.828125 -34.652344 L 28.828125 -46.589844 L 34.941406 -46.589844 L 34.941406 -40.472656 L 5.824219 -40.472656 L 5.824219 -46.589844 L 11.9375 -46.589844 L 11.9375 -34.652344 L 0 -34.652344 L 0 -40.765625 L 6.117188 -40.765625 L 6.117188 -29.117188 L 0 -29.117188 L 0 -35.234375 L 11.9375 -35.234375 L 11.9375 -23.296875 L 5.824219 -23.296875 L 5.824219 -29.410156 L 35.234375 -29.410156 L 35.234375 -5.53125 L 5.53125 -5.53125 L 5.53125 -17.472656 L 11.648438 -17.472656 L 11.648438 -11.355469 L 0 -11.355469 L 0 -17.472656 L 6.117188 -17.472656 L 6.117188 -11.648438 L 0 -11.648438 L 0 -17.761719 L 11.9375 -17.761719 Z M 11.9375 -5.824219 "/></g></g></g><g fill="#ffffff" fill-opacity="1"><g transform="translate(280.663825, 257.244322)"><g/></g></g><g fill="#000000" fill-opacity="1"><g transform="translate(117.620867, 164.244328)"><g><path d="M 5.828125 -5.828125 L 5.828125 -11.640625 L 0 -11.640625 L 0 -46.59375 L 11.640625 -46.59375 L 11.640625 -23.296875 L 17.46875 -23.296875 L 17.46875 -46.59375 L 23.296875 -46.59375 L 23.296875 -23.296875 L 29.125 -23.296875 L 29.125 -46.59375 L 40.765625 -46.59375 L 40.765625 -11.640625 L 34.9375 -11.640625 L 34.9375 -5.828125 L 29.125 -5.828125 L 29.125 -11.640625 L 23.296875 -11.640625 L 23.296875 -17.46875 L 17.46875 -17.46875 L 17.46875 -11.640625 L 11.640625 -11.640625 L 11.640625 -5.828125 Z M 5.828125 -5.828125 "/></g></g></g><g fill="#000000" fill-opacity="1"><g transform="translate(164.202964, 164.244328)"><g><path d="M 0 -5.828125 L 0 -46.59375 L 11.640625 -46.59375 L 11.640625 -29.125 L 29.125 -29.125 L 29.125 -46.59375 L 40.765625 -46.59375 L 40.765625 -5.828125 L 29.125 -5.828125 L 29.125 -23.296875 L 11.640625 -23.296875 L 11.640625 -5.828125 Z M 0 -5.828125 "/></g></g></g><g fill="#000000" fill-opacity="1"><g transform="translate(210.785062, 164.244328)"><g><path d="M 5.828125 -5.828125 L 5.828125 -11.640625 L 0 -11.640625 L 0 -40.765625 L 5.828125 -40.765625 L 5.828125 -46.59375 L 34.9375 -46.59375 L 34.9375 -40.765625 L 40.765625 -40.765625 L 40.765625 -11.640625 L 34.9375 -11.640625 L 34.9375 -5.828125 Z M 11.640625 -11.640625 L 29.125 -11.640625 L 29.125 -40.765625 L 11.640625 -40.765625 Z M 11.640625 -11.640625 "/></g></g></g><g fill="#000000" fill-opacity="1"><g transform="translate(257.378674, 164.244328)"><g/></g></g><g fill="#000000" fill-opacity="1"><g transform="translate(71.038839, 210.744325)"><g><path d="M 0 -5.828125 L 0 -46.59375 L 34.9375 -46.59375 L 34.9375 -40.765625 L 40.765625 -40.765625 L 40.765625 -29.125 L 34.9375 -29.125 L 34.9375 -23.296875 L 40.765625 -23.296875 L 40.765625 -11.640625 L 34.9375 -11.640625 L 34.9375 -5.828125 Z M 11.640625 -29.125 L 29.125 -29.125 L 29.125 -40.765625 L 11.640625 -40.765625 Z M 11.640625 -11.640625 L 29.125 -11.640625 L 29.125 -23.296875 L 11.640625 -23.296875 Z M 11.640625 -11.640625 "/></g></g></g><g fill="#000000" fill-opacity="1"><g transform="translate(117.620936, 210.744325)"><g><path d="M 5.828125 -5.828125 L 5.828125 -11.640625 L 0 -11.640625 L 0 -46.59375 L 11.640625 -46.59375 L 11.640625 -11.640625 L 29.125 -11.640625 L 29.125 -46.59375 L 40.765625 -46.59375 L 40.765625 -11.640625 L 34.9375 -11.640625 L 34.9375 -5.828125 Z M 5.828125 -5.828125 "/></g></g></g><g fill="#000000" fill-opacity="1"><g transform="translate(164.203033, 210.744325)"><g><path d="M 5.828125 -5.828125 L 5.828125 -11.640625 L 17.46875 -11.640625 L 17.46875 -40.765625 L 5.828125 -40.765625 L 5.828125 -46.59375 L 40.765625 -46.59375 L 40.765625 -40.765625 L 29.125 -40.765625 L 29.125 -11.640625 L 40.765625 -11.640625 L 40.765625 -5.828125 Z M 5.828125 -5.828125 "/></g></g></g><g fill="#000000" fill-opacity="1"><g transform="translate(210.785131, 210.744325)"><g><path d="M 5.828125 -5.828125 L 5.828125 -46.59375 L 17.46875 -46.59375 L 17.46875 -11.640625 L 40.765625 -11.640625 L 40.765625 -5.828125 Z M 5.828125 -5.828125 "/></g></g></g><g fill="#000000" fill-opacity="1"><g transform="translate(257.367228, 210.744325)"><g><path d="M 0 -5.828125 L 0 -46.59375 L 29.125 -46.59375 L 29.125 -40.765625 L 34.9375 -40.765625 L 34.9375 -34.9375 L 40.765625 -34.9375 L 40.765625 -17.46875 L 34.9375 -17.46875 L 34.9375 -11.640625 L 29.125 -11.640625 L 29.125 -5.828125 Z M 11.640625 -11.640625 L 23.296875 -11.640625 L 23.296875 -17.46875 L 29.125 -17.46875 L 29.125 -34.9375 L 23.296875 -34.9375 L 23.296875 -40.765625 L 11.640625 -40.765625 Z M 11.640625 -11.640625 "/></g></g></g><g fill="#000000" fill-opacity="1"><g transform="translate(303.960699, 210.744325)"><g/></g></g><g fill="#000000" fill-opacity="1"><g transform="translate(94.323994, 257.244322)"><g><path d="M 17.46875 -5.828125 L 17.46875 -40.765625 L 5.828125 -40.765625 L 5.828125 -46.59375 L 40.765625 -46.59375 L 40.765625 -40.765625 L 29.125 -40.765625 L 29.125 -5.828125 Z M 17.46875 -5.828125 "/></g></g></g><g fill="#000000" fill-opacity="1"><g transform="translate(140.906091, 257.244322)"><g><path d="M 0 -5.828125 L 0 -46.59375 L 11.640625 -46.59375 L 11.640625 -29.125 L 29.125 -29.125 L 29.125 -46.59375 L 40.765625 -46.59375 L 40.765625 -5.828125 L 29.125 -5.828125 L 29.125 -23.296875 L 11.640625 -23.296875 L 11.640625 -5.828125 Z M 0 -5.828125 "/></g></g></g><g fill="#000000" fill-opacity="1"><g transform="translate(187.488188, 257.244322)"><g><path d="M 5.828125 -5.828125 L 5.828125 -11.640625 L 17.46875 -11.640625 L 17.46875 -40.765625 L 5.828125 -40.765625 L 5.828125 -46.59375 L 40.765625 -46.59375 L 40.765625 -40.765625 L 29.125 -40.765625 L 29.125 -11.640625 L 40.765625 -11.640625 L 40.765625 -5.828125 Z M 5.828125 -5.828125 "/></g></g></g><g fill="#000000" fill-opacity="1"><g transform="translate(234.070285, 257.244322)"><g><path d="M 5.828125 -5.828125 L 5.828125 -11.640625 L 0 -11.640625 L 0 -17.46875 L 11.640625 -17.46875 L 11.640625 -11.640625 L 29.125 -11.640625 L 29.125 -23.296875 L 5.828125 -23.296875 L 5.828125 -29.125 L 0 -29.125 L 0 -40.765625 L 5.828125 -40.765625 L 5.828125 -46.59375 L 34.9375 -46.59375 L 34.9375 -40.765625 L 40.765625 -40.765625 L 40.765625 -34.9375 L 29.125 -34.9375 L 29.125 -40.765625 L 11.640625 -40.765625 L 11.640625 -29.125 L 34.9375 -29.125 L 34.9375 -23.296875 L 40.765625 -23.296875 L 40.765625 -11.640625 L 34.9375 -11.640625 L 34.9375 -5.828125 Z M 5.828125 -5.828125 "/></g></g></g><g fill="#000000" fill-opacity="1"><g transform="translate(280.663825, 257.244322)"><g/></g></g></svg>