<svg xmlns="http://www.w3.org/2000/svg" xmlns:xlink="http://www.w3.org/1999/xlink" width="500" zoomAndPan="magnify" viewBox="0 0 375 374.999991" height="500" preserveAspectRatio="xMidYMid meet" version="1.0"><defs><g/><clipPath id="2d799c6537"><path d="M 0 77 L 82 77 L 82 162 L 0 162 Z M 0 77 " clip-rule="nonzero"/></clipPath><clipPath id="7e2a769e25"><path d="M 294 77 L 375 77 L 375 162 L 294 162 Z M 294 77 " clip-rule="nonzero"/></clipPath><clipPath id="ce078758a8"><rect x="0" width="375" y="0" height="247"/></clipPath></defs><g transform="matrix(1, 0, 0, 1, 0, 66)"><g clip-path="url(#ce078758a8)"><g fill="#ffffff" fill-opacity="1"><g transform="translate(81.246229, 87.033834)"><g><path d="M -0.464844 -9.300781 L -0.464844 -18.601562 L 9.300781 -18.601562 L 9.300781 -8.835938 L -9.765625 -8.835938 L -9.765625 -84.175781 L 28.371094 -84.175781 L 28.371094 -37.203125 L 18.601562 -37.203125 L 18.601562 -46.972656 L 27.902344 -46.972656 L 27.902344 -37.203125 L 18.136719 -37.203125 L 18.136719 -84.175781 L 46.972656 -84.175781 L 46.972656 -37.203125 L 37.203125 -37.203125 L 37.203125 -46.972656 L 46.503906 -46.972656 L 46.503906 -37.203125 L 36.738281 -37.203125 L 36.738281 -84.175781 L 74.875 -84.175781 L 74.875 -8.835938 L 55.804688 -8.835938 L 55.804688 -18.601562 L 65.574219 -18.601562 L 65.574219 0.464844 L 36.738281 0.464844 L 36.738281 -18.601562 L 46.503906 -18.601562 L 46.503906 -8.835938 L 27.4375 -8.835938 L 27.4375 -27.902344 L 37.203125 -27.902344 L 37.203125 -18.136719 L 27.902344 -18.136719 L 27.902344 -27.902344 L 37.671875 -27.902344 L 37.671875 -8.835938 L 18.601562 -8.835938 L 18.601562 -18.601562 L 28.371094 -18.601562 L 28.371094 0.464844 L -0.464844 0.464844 Z M 19.066406 -9.300781 L 9.300781 -9.300781 L 9.300781 -19.066406 L 18.601562 -19.066406 L 18.601562 -9.300781 L 8.835938 -9.300781 L 8.835938 -28.371094 L 27.902344 -28.371094 L 27.902344 -18.601562 L 18.136719 -18.601562 L 18.136719 -37.671875 L 46.972656 -37.671875 L 46.972656 -18.601562 L 37.203125 -18.601562 L 37.203125 -28.371094 L 56.273438 -28.371094 L 56.273438 -9.300781 L 46.503906 -9.300781 L 46.503906 -19.066406 L 55.804688 -19.066406 L 55.804688 -9.300781 L 46.039062 -9.300781 L 46.039062 -28.371094 L 65.105469 -28.371094 L 65.105469 -18.601562 L 55.339844 -18.601562 L 55.339844 -74.410156 L 65.105469 -74.410156 L 65.105469 -64.640625 L 46.503906 -64.640625 L 46.503906 -74.410156 L 56.273438 -74.410156 L 56.273438 -27.4375 L 27.4375 -27.4375 L 27.4375 -74.410156 L 37.203125 -74.410156 L 37.203125 -64.640625 L 27.902344 -64.640625 L 27.902344 -74.410156 L 37.671875 -74.410156 L 37.671875 -27.4375 L 8.835938 -27.4375 L 8.835938 -74.410156 L 18.601562 -74.410156 L 18.601562 -64.640625 L 0 -64.640625 L 0 -74.410156 L 9.765625 -74.410156 L 9.765625 -18.601562 L 0 -18.601562 L 0 -28.371094 L 19.066406 -28.371094 Z M 19.066406 -9.300781 "/></g></g></g><g fill="#ffffff" fill-opacity="1"><g transform="translate(155.64208, 87.033834)"><g><path d="M -9.765625 -9.300781 L -9.765625 -84.175781 L 28.371094 -84.175781 L 28.371094 -46.503906 L 18.601562 -46.503906 L 18.601562 -56.273438 L 46.503906 -56.273438 L 46.503906 -46.503906 L 36.738281 -46.503906 L 36.738281 -84.175781 L 74.875 -84.175781 L 74.875 0.464844 L 36.738281 0.464844 L 36.738281 -37.203125 L 46.503906 -37.203125 L 46.503906 -27.4375 L 18.601562 -27.4375 L 18.601562 -37.203125 L 28.371094 -37.203125 L 28.371094 0.464844 L -9.765625 0.464844 Z M 9.765625 -9.300781 L 0 -9.300781 L 0 -19.066406 L 18.601562 -19.066406 L 18.601562 -9.300781 L 8.835938 -9.300781 L 8.835938 -46.972656 L 56.273438 -46.972656 L 56.273438 -9.300781 L 46.503906 -9.300781 L 46.503906 -19.066406 L 65.105469 -19.066406 L 65.105469 -9.300781 L 55.339844 -9.300781 L 55.339844 -74.410156 L 65.105469 -74.410156 L 65.105469 -64.640625 L 46.503906 -64.640625 L 46.503906 -74.410156 L 56.273438 -74.410156 L 56.273438 -36.738281 L 8.835938 -36.738281 L 8.835938 -74.410156 L 18.601562 -74.410156 L 18.601562 -64.640625 L 0 -64.640625 L 0 -74.410156 L 9.765625 -74.410156 Z M 9.765625 -9.300781 "/></g></g></g><g fill="#ffffff" fill-opacity="1"><g transform="translate(230.037932, 87.033834)"><g><path d="M -0.464844 -9.300781 L -0.464844 -18.601562 L 9.300781 -18.601562 L 9.300781 -8.835938 L -9.765625 -8.835938 L -9.765625 -74.875 L 9.300781 -74.875 L 9.300781 -65.105469 L -0.464844 -65.105469 L -0.464844 -84.175781 L 65.574219 -84.175781 L 65.574219 -65.105469 L 55.804688 -65.105469 L 55.804688 -74.875 L 74.875 -74.875 L 74.875 -8.835938 L 55.804688 -8.835938 L 55.804688 -18.601562 L 65.574219 -18.601562 L 65.574219 0.464844 L -0.464844 0.464844 Z M 19.066406 -9.300781 L 9.300781 -9.300781 L 9.300781 -19.066406 L 55.804688 -19.066406 L 55.804688 -9.300781 L 46.039062 -9.300781 L 46.039062 -28.371094 L 65.105469 -28.371094 L 65.105469 -18.601562 L 55.339844 -18.601562 L 55.339844 -65.105469 L 65.105469 -65.105469 L 65.105469 -55.339844 L 46.039062 -55.339844 L 46.039062 -74.410156 L 55.804688 -74.410156 L 55.804688 -64.640625 L 9.300781 -64.640625 L 9.300781 -74.410156 L 19.066406 -74.410156 L 19.066406 -55.339844 L 0 -55.339844 L 0 -65.105469 L 9.765625 -65.105469 L 9.765625 -18.601562 L 0 -18.601562 L 0 -28.371094 L 19.066406 -28.371094 Z M 18.601562 -28.371094 L 46.503906 -28.371094 L 46.503906 -18.601562 L 36.738281 -18.601562 L 36.738281 -65.105469 L 46.503906 -65.105469 L 46.503906 -55.339844 L 18.601562 -55.339844 L 18.601562 -65.105469 L 28.371094 -65.105469 L 28.371094 -18.601562 L 18.601562 -18.601562 Z M 8.835938 -8.835938 L 8.835938 -74.875 L 56.273438 -74.875 L 56.273438 -8.835938 Z M 8.835938 -8.835938 "/></g></g></g><g fill="#ffffff" fill-opacity="1"><g transform="translate(304.452175, 87.033834)"><g/></g></g><g clip-path="url(#2d799c6537)"><g fill="#ffffff" fill-opacity="1"><g transform="translate(6.850487, 161.298564)"><g><path d="M -9.765625 -9.300781 L -9.765625 -84.175781 L 65.574219 -84.175781 L 65.574219 -65.105469 L 55.804688 -65.105469 L 55.804688 -74.875 L 74.875 -74.875 L 74.875 -36.738281 L 55.804688 -36.738281 L 55.804688 -46.503906 L 65.574219 -46.503906 L 65.574219 -37.203125 L 55.804688 -37.203125 L 55.804688 -46.972656 L 74.875 -46.972656 L 74.875 -8.835938 L 55.804688 -8.835938 L 55.804688 -18.601562 L 65.574219 -18.601562 L 65.574219 0.464844 L -9.765625 0.464844 Z M 9.765625 -9.300781 L 0 -9.300781 L 0 -19.066406 L 55.804688 -19.066406 L 55.804688 -9.300781 L 46.039062 -9.300781 L 46.039062 -28.371094 L 65.105469 -28.371094 L 65.105469 -18.601562 L 55.339844 -18.601562 L 55.339844 -37.203125 L 65.105469 -37.203125 L 65.105469 -27.4375 L 46.039062 -27.4375 L 46.039062 -56.273438 L 65.105469 -56.273438 L 65.105469 -46.503906 L 55.339844 -46.503906 L 55.339844 -65.105469 L 65.105469 -65.105469 L 65.105469 -55.339844 L 46.039062 -55.339844 L 46.039062 -74.410156 L 55.804688 -74.410156 L 55.804688 -64.640625 L 0 -64.640625 L 0 -74.410156 L 9.765625 -74.410156 Z M 18.601562 -56.273438 L 46.503906 -56.273438 L 46.503906 -46.503906 L 36.738281 -46.503906 L 36.738281 -65.105469 L 46.503906 -65.105469 L 46.503906 -55.339844 L 18.601562 -55.339844 L 18.601562 -65.105469 L 28.371094 -65.105469 L 28.371094 -46.503906 L 18.601562 -46.503906 Z M 8.835938 -36.738281 L 8.835938 -74.875 L 56.273438 -74.875 L 56.273438 -36.738281 Z M 18.601562 -28.371094 L 46.503906 -28.371094 L 46.503906 -18.601562 L 36.738281 -18.601562 L 36.738281 -37.203125 L 46.503906 -37.203125 L 46.503906 -27.4375 L 18.601562 -27.4375 L 18.601562 -37.203125 L 28.371094 -37.203125 L 28.371094 -18.601562 L 18.601562 -18.601562 Z M 8.835938 -8.835938 L 8.835938 -46.972656 L 56.273438 -46.972656 L 56.273438 -8.835938 Z M 8.835938 -8.835938 "/></g></g></g></g><g fill="#ffffff" fill-opacity="1"><g transform="translate(81.246339, 161.298564)"><g><path d="M -0.464844 -9.300781 L -0.464844 -18.601562 L 9.300781 -18.601562 L 9.300781 -8.835938 L -9.765625 -8.835938 L -9.765625 -84.175781 L 28.371094 -84.175781 L 28.371094 -18.601562 L 18.601562 -18.601562 L 18.601562 -28.371094 L 46.503906 -28.371094 L 46.503906 -18.601562 L 36.738281 -18.601562 L 36.738281 -84.175781 L 74.875 -84.175781 L 74.875 -8.835938 L 55.804688 -8.835938 L 55.804688 -18.601562 L 65.574219 -18.601562 L 65.574219 0.464844 L -0.464844 0.464844 Z M 19.066406 -9.300781 L 9.300781 -9.300781 L 9.300781 -19.066406 L 55.804688 -19.066406 L 55.804688 -9.300781 L 46.039062 -9.300781 L 46.039062 -28.371094 L 65.105469 -28.371094 L 65.105469 -18.601562 L 55.339844 -18.601562 L 55.339844 -74.410156 L 65.105469 -74.410156 L 65.105469 -64.640625 L 46.503906 -64.640625 L 46.503906 -74.410156 L 56.273438 -74.410156 L 56.273438 -8.835938 L 8.835938 -8.835938 L 8.835938 -74.410156 L 18.601562 -74.410156 L 18.601562 -64.640625 L 0 -64.640625 L 0 -74.410156 L 9.765625 -74.410156 L 9.765625 -18.601562 L 0 -18.601562 L 0 -28.371094 L 19.066406 -28.371094 Z M 19.066406 -9.300781 "/></g></g></g><g fill="#ffffff" fill-opacity="1"><g transform="translate(155.642191, 161.298564)"><g><path d="M -0.464844 -9.300781 L -0.464844 -28.371094 L 27.902344 -28.371094 L 27.902344 -18.601562 L 18.136719 -18.601562 L 18.136719 -65.105469 L 27.902344 -65.105469 L 27.902344 -55.339844 L -0.464844 -55.339844 L -0.464844 -84.175781 L 74.875 -84.175781 L 74.875 -55.339844 L 46.503906 -55.339844 L 46.503906 -65.105469 L 56.273438 -65.105469 L 56.273438 -18.601562 L 46.503906 -18.601562 L 46.503906 -28.371094 L 74.875 -28.371094 L 74.875 0.464844 L -0.464844 0.464844 Z M 19.066406 -9.300781 L 9.300781 -9.300781 L 9.300781 -19.066406 L 65.105469 -19.066406 L 65.105469 -9.300781 L 55.339844 -9.300781 L 55.339844 -18.601562 L 65.105469 -18.601562 L 65.105469 -8.835938 L 36.738281 -8.835938 L 36.738281 -74.875 L 65.105469 -74.875 L 65.105469 -65.105469 L 55.339844 -65.105469 L 55.339844 -74.410156 L 65.105469 -74.410156 L 65.105469 -64.640625 L 9.300781 -64.640625 L 9.300781 -74.410156 L 19.066406 -74.410156 L 19.066406 -65.105469 L 9.300781 -65.105469 L 9.300781 -74.875 L 37.671875 -74.875 L 37.671875 -8.835938 L 9.300781 -8.835938 L 9.300781 -18.601562 L 19.066406 -18.601562 Z M 19.066406 -9.300781 "/></g></g></g><g fill="#ffffff" fill-opacity="1"><g transform="translate(230.038042, 161.298564)"><g><path d="M -0.464844 -9.300781 L -0.464844 -84.175781 L 37.671875 -84.175781 L 37.671875 -18.601562 L 27.902344 -18.601562 L 27.902344 -28.371094 L 74.875 -28.371094 L 74.875 0.464844 L -0.464844 0.464844 Z M 19.066406 -9.300781 L 9.300781 -9.300781 L 9.300781 -19.066406 L 65.105469 -19.066406 L 65.105469 -9.300781 L 55.339844 -9.300781 L 55.339844 -18.601562 L 65.105469 -18.601562 L 65.105469 -8.835938 L 18.136719 -8.835938 L 18.136719 -74.410156 L 27.902344 -74.410156 L 27.902344 -64.640625 L 9.300781 -64.640625 L 9.300781 -74.410156 L 19.066406 -74.410156 Z M 19.066406 -9.300781 "/></g></g></g><g clip-path="url(#7e2a769e25)"><g fill="#ffffff" fill-opacity="1"><g transform="translate(304.433894, 161.298564)"><g><path d="M -9.765625 -9.300781 L -9.765625 -84.175781 L 56.273438 -84.175781 L 56.273438 -65.105469 L 46.503906 -65.105469 L 46.503906 -74.875 L 65.574219 -74.875 L 65.574219 -55.804688 L 55.804688 -55.804688 L 55.804688 -65.574219 L 74.875 -65.574219 L 74.875 -18.136719 L 55.804688 -18.136719 L 55.804688 -27.902344 L 65.574219 -27.902344 L 65.574219 -8.835938 L 46.503906 -8.835938 L 46.503906 -18.601562 L 56.273438 -18.601562 L 56.273438 0.464844 L -9.765625 0.464844 Z M 9.765625 -9.300781 L 0 -9.300781 L 0 -19.066406 L 46.503906 -19.066406 L 46.503906 -9.300781 L 36.738281 -9.300781 L 36.738281 -28.371094 L 55.804688 -28.371094 L 55.804688 -18.601562 L 46.039062 -18.601562 L 46.039062 -37.671875 L 65.105469 -37.671875 L 65.105469 -27.902344 L 55.339844 -27.902344 L 55.339844 -55.804688 L 65.105469 -55.804688 L 65.105469 -46.039062 L 46.039062 -46.039062 L 46.039062 -65.105469 L 55.804688 -65.105469 L 55.804688 -55.339844 L 36.738281 -55.339844 L 36.738281 -74.410156 L 46.503906 -74.410156 L 46.503906 -64.640625 L 0 -64.640625 L 0 -74.410156 L 9.765625 -74.410156 Z M 18.601562 -28.371094 L 37.203125 -28.371094 L 37.203125 -18.601562 L 27.4375 -18.601562 L 27.4375 -37.671875 L 46.503906 -37.671875 L 46.503906 -27.902344 L 36.738281 -27.902344 L 36.738281 -55.804688 L 46.503906 -55.804688 L 46.503906 -46.039062 L 27.4375 -46.039062 L 27.4375 -65.105469 L 37.203125 -65.105469 L 37.203125 -55.339844 L 18.601562 -55.339844 L 18.601562 -65.105469 L 28.371094 -65.105469 L 28.371094 -18.601562 L 18.601562 -18.601562 Z M 8.835938 -8.835938 L 8.835938 -74.875 L 46.972656 -74.875 L 46.972656 -55.804688 L 37.203125 -55.804688 L 37.203125 -65.574219 L 56.273438 -65.574219 L 56.273438 -18.136719 L 37.203125 -18.136719 L 37.203125 -27.902344 L 46.972656 -27.902344 L 46.972656 -8.835938 Z M 8.835938 -8.835938 "/></g></g></g></g><g fill="#ffffff" fill-opacity="1"><g transform="translate(44.039, 235.563294)"><g><path d="M 18.136719 -9.300781 L 18.136719 -65.105469 L 27.902344 -65.105469 L 27.902344 -55.339844 L -0.464844 -55.339844 L -0.464844 -84.175781 L 74.875 -84.175781 L 74.875 -55.339844 L 46.503906 -55.339844 L 46.503906 -65.105469 L 56.273438 -65.105469 L 56.273438 0.464844 L 18.136719 0.464844 Z M 37.671875 -9.300781 L 27.902344 -9.300781 L 27.902344 -19.066406 L 46.503906 -19.066406 L 46.503906 -9.300781 L 36.738281 -9.300781 L 36.738281 -74.875 L 65.105469 -74.875 L 65.105469 -65.105469 L 55.339844 -65.105469 L 55.339844 -74.410156 L 65.105469 -74.410156 L 65.105469 -64.640625 L 9.300781 -64.640625 L 9.300781 -74.410156 L 19.066406 -74.410156 L 19.066406 -65.105469 L 9.300781 -65.105469 L 9.300781 -74.875 L 37.671875 -74.875 Z M 37.671875 -9.300781 "/></g></g></g><g fill="#ffffff" fill-opacity="1"><g transform="translate(118.434852, 235.563294)"><g><path d="M -9.765625 -9.300781 L -9.765625 -84.175781 L 28.371094 -84.175781 L 28.371094 -46.503906 L 18.601562 -46.503906 L 18.601562 -56.273438 L 46.503906 -56.273438 L 46.503906 -46.503906 L 36.738281 -46.503906 L 36.738281 -84.175781 L 74.875 -84.175781 L 74.875 0.464844 L 36.738281 0.464844 L 36.738281 -37.203125 L 46.503906 -37.203125 L 46.503906 -27.4375 L 18.601562 -27.4375 L 18.601562 -37.203125 L 28.371094 -37.203125 L 28.371094 0.464844 L -9.765625 0.464844 Z M 9.765625 -9.300781 L 0 -9.300781 L 0 -19.066406 L 18.601562 -19.066406 L 18.601562 -9.300781 L 8.835938 -9.300781 L 8.835938 -46.972656 L 56.273438 -46.972656 L 56.273438 -9.300781 L 46.503906 -9.300781 L 46.503906 -19.066406 L 65.105469 -19.066406 L 65.105469 -9.300781 L 55.339844 -9.300781 L 55.339844 -74.410156 L 65.105469 -74.410156 L 65.105469 -64.640625 L 46.503906 -64.640625 L 46.503906 -74.410156 L 56.273438 -74.410156 L 56.273438 -36.738281 L 8.835938 -36.738281 L 8.835938 -74.410156 L 18.601562 -74.410156 L 18.601562 -64.640625 L 0 -64.640625 L 0 -74.410156 L 9.765625 -74.410156 Z M 9.765625 -9.300781 "/></g></g></g><g fill="#ffffff" fill-opacity="1"><g transform="translate(192.830703, 235.563294)"><g><path d="M -0.464844 -9.300781 L -0.464844 -28.371094 L 27.902344 -28.371094 L 27.902344 -18.601562 L 18.136719 -18.601562 L 18.136719 -65.105469 L 27.902344 -65.105469 L 27.902344 -55.339844 L -0.464844 -55.339844 L -0.464844 -84.175781 L 74.875 -84.175781 L 74.875 -55.339844 L 46.503906 -55.339844 L 46.503906 -65.105469 L 56.273438 -65.105469 L 56.273438 -18.601562 L 46.503906 -18.601562 L 46.503906 -28.371094 L 74.875 -28.371094 L 74.875 0.464844 L -0.464844 0.464844 Z M 19.066406 -9.300781 L 9.300781 -9.300781 L 9.300781 -19.066406 L 65.105469 -19.066406 L 65.105469 -9.300781 L 55.339844 -9.300781 L 55.339844 -18.601562 L 65.105469 -18.601562 L 65.105469 -8.835938 L 36.738281 -8.835938 L 36.738281 -74.875 L 65.105469 -74.875 L 65.105469 -65.105469 L 55.339844 -65.105469 L 55.339844 -74.410156 L 65.105469 -74.410156 L 65.105469 -64.640625 L 9.300781 -64.640625 L 9.300781 -74.410156 L 19.066406 -74.410156 L 19.066406 -65.105469 L 9.300781 -65.105469 L 9.300781 -74.875 L 37.671875 -74.875 L 37.671875 -8.835938 L 9.300781 -8.835938 L 9.300781 -18.601562 L 19.066406 -18.601562 Z M 19.066406 -9.300781 "/></g></g></g><g fill="#ffffff" fill-opacity="1"><g transform="translate(267.226555, 235.563294)"><g><path d="M -0.464844 -9.300781 L -0.464844 -18.601562 L 9.300781 -18.601562 L 9.300781 -8.835938 L -9.765625 -8.835938 L -9.765625 -37.671875 L 28.371094 -37.671875 L 28.371094 -18.601562 L 18.601562 -18.601562 L 18.601562 -28.371094 L 46.503906 -28.371094 L 46.503906 -18.601562 L 36.738281 -18.601562 L 36.738281 -37.203125 L 46.503906 -37.203125 L 46.503906 -27.4375 L -0.464844 -27.4375 L -0.464844 -46.503906 L 9.300781 -46.503906 L 9.300781 -36.738281 L -9.765625 -36.738281 L -9.765625 -74.875 L 9.300781 -74.875 L 9.300781 -65.105469 L -0.464844 -65.105469 L -0.464844 -84.175781 L 65.574219 -84.175781 L 65.574219 -65.105469 L 55.804688 -65.105469 L 55.804688 -74.875 L 74.875 -74.875 L 74.875 -46.039062 L 36.738281 -46.039062 L 36.738281 -65.105469 L 46.503906 -65.105469 L 46.503906 -55.339844 L 18.601562 -55.339844 L 18.601562 -65.105469 L 28.371094 -65.105469 L 28.371094 -46.503906 L 18.601562 -46.503906 L 18.601562 -56.273438 L 65.574219 -56.273438 L 65.574219 -37.203125 L 55.804688 -37.203125 L 55.804688 -46.972656 L 74.875 -46.972656 L 74.875 -8.835938 L 55.804688 -8.835938 L 55.804688 -18.601562 L 65.574219 -18.601562 L 65.574219 0.464844 L -0.464844 0.464844 Z M 19.066406 -9.300781 L 9.300781 -9.300781 L 9.300781 -19.066406 L 55.804688 -19.066406 L 55.804688 -9.300781 L 46.039062 -9.300781 L 46.039062 -28.371094 L 65.105469 -28.371094 L 65.105469 -18.601562 L 55.339844 -18.601562 L 55.339844 -37.203125 L 65.105469 -37.203125 L 65.105469 -27.4375 L 46.039062 -27.4375 L 46.039062 -46.503906 L 55.804688 -46.503906 L 55.804688 -36.738281 L 8.835938 -36.738281 L 8.835938 -74.875 L 56.273438 -74.875 L 56.273438 -55.804688 L 46.503906 -55.804688 L 46.503906 -65.574219 L 65.105469 -65.574219 L 65.105469 -55.804688 L 55.339844 -55.804688 L 55.339844 -65.105469 L 65.105469 -65.105469 L 65.105469 -55.339844 L 46.039062 -55.339844 L 46.039062 -74.410156 L 55.804688 -74.410156 L 55.804688 -64.640625 L 9.300781 -64.640625 L 9.300781 -74.410156 L 19.066406 -74.410156 L 19.066406 -55.339844 L 0 -55.339844 L 0 -65.105469 L 9.765625 -65.105469 L 9.765625 -46.503906 L 0 -46.503906 L 0 -56.273438 L 19.066406 -56.273438 L 19.066406 -37.203125 L 9.300781 -37.203125 L 9.300781 -46.972656 L 56.273438 -46.972656 L 56.273438 -8.835938 L 8.835938 -8.835938 L 8.835938 -27.902344 L 18.601562 -27.902344 L 18.601562 -18.136719 L 0 -18.136719 L 0 -27.902344 L 9.765625 -27.902344 L 9.765625 -18.601562 L 0 -18.601562 L 0 -28.371094 L 19.066406 -28.371094 Z M 19.066406 -9.300781 "/></g></g></g><g fill="#ffffff" fill-opacity="1"><g transform="translate(341.640681, 235.563294)"><g/></g></g><g fill="#000000" fill-opacity="1"><g transform="translate(81.246229, 87.033834)"><g><path d="M 9.296875 -9.296875 L 9.296875 -18.59375 L 0 -18.59375 L 0 -74.40625 L 18.59375 -74.40625 L 18.59375 -37.203125 L 27.90625 -37.203125 L 27.90625 -74.40625 L 37.203125 -74.40625 L 37.203125 -37.203125 L 46.5 -37.203125 L 46.5 -74.40625 L 65.109375 -74.40625 L 65.109375 -18.59375 L 55.796875 -18.59375 L 55.796875 -9.296875 L 46.5 -9.296875 L 46.5 -18.59375 L 37.203125 -18.59375 L 37.203125 -27.90625 L 27.90625 -27.90625 L 27.90625 -18.59375 L 18.59375 -18.59375 L 18.59375 -9.296875 Z M 9.296875 -9.296875 "/></g></g></g><g fill="#000000" fill-opacity="1"><g transform="translate(155.64208, 87.033834)"><g><path d="M 0 -9.296875 L 0 -74.40625 L 18.59375 -74.40625 L 18.59375 -46.5 L 46.5 -46.5 L 46.5 -74.40625 L 65.109375 -74.40625 L 65.109375 -9.296875 L 46.5 -9.296875 L 46.5 -37.203125 L 18.59375 -37.203125 L 18.59375 -9.296875 Z M 0 -9.296875 "/></g></g></g><g fill="#000000" fill-opacity="1"><g transform="translate(230.037932, 87.033834)"><g><path d="M 9.296875 -9.296875 L 9.296875 -18.59375 L 0 -18.59375 L 0 -65.109375 L 9.296875 -65.109375 L 9.296875 -74.40625 L 55.796875 -74.40625 L 55.796875 -65.109375 L 65.109375 -65.109375 L 65.109375 -18.59375 L 55.796875 -18.59375 L 55.796875 -9.296875 Z M 18.59375 -18.59375 L 46.5 -18.59375 L 46.5 -65.109375 L 18.59375 -65.109375 Z M 18.59375 -18.59375 "/></g></g></g><g fill="#000000" fill-opacity="1"><g transform="translate(304.452175, 87.033834)"><g/></g></g><g fill="#000000" fill-opacity="1"><g transform="translate(6.850487, 161.298564)"><g><path d="M 0 -9.296875 L 0 -74.40625 L 55.796875 -74.40625 L 55.796875 -65.109375 L 65.109375 -65.109375 L 65.109375 -46.5 L 55.796875 -46.5 L 55.796875 -37.203125 L 65.109375 -37.203125 L 65.109375 -18.59375 L 55.796875 -18.59375 L 55.796875 -9.296875 Z M 18.59375 -46.5 L 46.5 -46.5 L 46.5 -65.109375 L 18.59375 -65.109375 Z M 18.59375 -18.59375 L 46.5 -18.59375 L 46.5 -37.203125 L 18.59375 -37.203125 Z M 18.59375 -18.59375 "/></g></g></g><g fill="#000000" fill-opacity="1"><g transform="translate(81.246339, 161.298564)"><g><path d="M 9.296875 -9.296875 L 9.296875 -18.59375 L 0 -18.59375 L 0 -74.40625 L 18.59375 -74.40625 L 18.59375 -18.59375 L 46.5 -18.59375 L 46.5 -74.40625 L 65.109375 -74.40625 L 65.109375 -18.59375 L 55.796875 -18.59375 L 55.796875 -9.296875 Z M 9.296875 -9.296875 "/></g></g></g><g fill="#000000" fill-opacity="1"><g transform="translate(155.642191, 161.298564)"><g><path d="M 9.296875 -9.296875 L 9.296875 -18.59375 L 27.90625 -18.59375 L 27.90625 -65.109375 L 9.296875 -65.109375 L 9.296875 -74.40625 L 65.109375 -74.40625 L 65.109375 -65.109375 L 46.5 -65.109375 L 46.5 -18.59375 L 65.109375 -18.59375 L 65.109375 -9.296875 Z M 9.296875 -9.296875 "/></g></g></g><g fill="#000000" fill-opacity="1"><g transform="translate(230.038042, 161.298564)"><g><path d="M 9.296875 -9.296875 L 9.296875 -74.40625 L 27.90625 -74.40625 L 27.90625 -18.59375 L 65.109375 -18.59375 L 65.109375 -9.296875 Z M 9.296875 -9.296875 "/></g></g></g><g fill="#000000" fill-opacity="1"><g transform="translate(304.433894, 161.298564)"><g><path d="M 0 -9.296875 L 0 -74.40625 L 46.5 -74.40625 L 46.5 -65.109375 L 55.796875 -65.109375 L 55.796875 -55.796875 L 65.109375 -55.796875 L 65.109375 -27.90625 L 55.796875 -27.90625 L 55.796875 -18.59375 L 46.5 -18.59375 L 46.5 -9.296875 Z M 18.59375 -18.59375 L 37.203125 -18.59375 L 37.203125 -27.90625 L 46.5 -27.90625 L 46.5 -55.796875 L 37.203125 -55.796875 L 37.203125 -65.109375 L 18.59375 -65.109375 Z M 18.59375 -18.59375 "/></g></g></g><g fill="#000000" fill-opacity="1"><g transform="translate(44.039, 235.563294)"><g><path d="M 27.90625 -9.296875 L 27.90625 -65.109375 L 9.296875 -65.109375 L 9.296875 -74.40625 L 65.109375 -74.40625 L 65.109375 -65.109375 L 46.5 -65.109375 L 46.5 -9.296875 Z M 27.90625 -9.296875 "/></g></g></g><g fill="#000000" fill-opacity="1"><g transform="translate(118.434852, 235.563294)"><g><path d="M 0 -9.296875 L 0 -74.40625 L 18.59375 -74.40625 L 18.59375 -46.5 L 46.5 -46.5 L 46.5 -74.40625 L 65.109375 -74.40625 L 65.109375 -9.296875 L 46.5 -9.296875 L 46.5 -37.203125 L 18.59375 -37.203125 L 18.59375 -9.296875 Z M 0 -9.296875 "/></g></g></g><g fill="#000000" fill-opacity="1"><g transform="translate(192.830703, 235.563294)"><g><path d="M 9.296875 -9.296875 L 9.296875 -18.59375 L 27.90625 -18.59375 L 27.90625 -65.109375 L 9.296875 -65.109375 L 9.296875 -74.40625 L 65.109375 -74.40625 L 65.109375 -65.109375 L 46.5 -65.109375 L 46.5 -18.59375 L 65.109375 -18.59375 L 65.109375 -9.296875 Z M 9.296875 -9.296875 "/></g></g></g><g fill="#000000" fill-opacity="1"><g transform="translate(267.226555, 235.563294)"><g><path d="M 9.296875 -9.296875 L 9.296875 -18.59375 L 0 -18.59375 L 0 -27.90625 L 18.59375 -27.90625 L 18.59375 -18.59375 L 46.5 -18.59375 L 46.5 -37.203125 L 9.296875 -37.203125 L 9.296875 -46.5 L 0 -46.5 L 0 -65.109375 L 9.296875 -65.109375 L 9.296875 -74.40625 L 55.796875 -74.40625 L 55.796875 -65.109375 L 65.109375 -65.109375 L 65.109375 -55.796875 L 46.5 -55.796875 L 46.5 -65.109375 L 18.59375 -65.109375 L 18.59375 -46.5 L 55.796875 -46.5 L 55.796875 -37.203125 L 65.109375 -37.203125 L 65.109375 -18.59375 L 55.796875 -18.59375 L 55.796875 -9.296875 Z M 9.296875 -9.296875 "/></g></g></g><g fill="#000000" fill-opacity="1"><g transform="translate(341.640681, 235.563294)"><g/></g></g></g></g></svg>